<svg xmlns="http://www.w3.org/2000/svg" viewBox="0 0 800 800">
  <defs>
    <radialGradient id="g" cx="35%" cy="30%" r="75%">
      <stop offset="0%"   stop-color="#FFD731"/>
      <stop offset="30%"  stop-color="#F25CA2"/>
      <stop offset="60%"  stop-color="#9B6BF2"/>
      <stop offset="100%" stop-color="#55DB9C"/>
    </radialGradient>
  </defs>
  <circle cx="400" cy="400" r="400" fill="url(#g)"/>
  <path fill="#0F0D0B" d="M400,80C221.6,80,80,221.6,80,400s141.6,320,320,320,320-141.6,320-320S578.4,80,400,80ZM617.7,389.4c5.5,0,10,4.5,10,10,0,129.4-105.3,234.8-234.8,234.8s-10-4.5-10-10,4.5-10,10-10c118.4,0,214.8-96.3,214.8-214.8s4.5-10,10-10ZM577.8,389.4c5.5,0,10,4.5,10,10,0,107.6-87.5,195-195,195s-10-4.5-10-10,4.5-10,10-10c96.5,0,175-78.5,175-175s4.5-10,10-10ZM537.2,389.4c5.5,0,10,4.5,10,10,0,85.3-69.4,154.7-154.7,154.7s-10-4.5-10-10,4.5-10,10-10c74.3,0,134.7-60.4,134.7-134.7s4.5-10,10-10ZM172.3,410.6c-5.5,0-10-4.5-10-10,0-151.2,123.1-274.3,274.3-274.3s10,4.5,10,10-4.5,10-10,10c-140.2,0-254.3,114-254.3,254.3s-4.5,10-10,10ZM212.2,410.6c-5.5,0-10-4.5-10-10,0-129.4,105.3-234.8,234.8-234.8s10,4.5,10,10-4.5,10-10,10c-118.4,0-214.8,96.3-214.8,214.8s-4.5,10-10,10ZM252.2,410.6c-5.5,0-10-4.5-10-10,0-107.6,87.5-195,195-195s10,4.5,10,10-4.5,10-10,10c-96.5,0-175,78.5-175,175s-4.5,10-10,10ZM292.8,410.6c-5.5,0-10-4.5-10-10,0-85.3,69.4-154.7,154.7-154.7s10,4.5,10,10-4.5,10-10,10c-74.3,0-134.7,60.4-134.7,134.7s-4.5,10-10,10ZM340.4,400c0-32.9,26.7-59.6,59.6-59.6s59.6,26.7,59.6,59.6-26.7,59.6-59.6,59.6-59.6-26.7-59.6-59.6ZM400,664c-5.5,0-10-4.5-10-10s4.5-10,10-10c140.2,0,254.3-114,254.3-254.3s4.5-10,10-10,10,4.5,10,10c0,151.2-123.1,274.3-274.3,274.3Z"/>
  <path fill="#0F0D0B" d="M400,375.2c-13.7,0-24.8,11.1-24.8,24.8s11.1,24.8,24.8,24.8,24.8-11.1,24.8-24.8-11.1-24.8-24.8-24.8Z"/>
</svg>
