<?xml version="1.0" encoding="UTF-8"?>
<svg id="Layer_1" xmlns="http://www.w3.org/2000/svg" version="1.1" viewBox="-251 -176 1110 1110">
  <!-- Generator: Adobe Illustrator 29.1.0, SVG Export Plug-In . SVG Version: 2.1.0 Build 142)  -->
  <defs>
    <style>
      .st0 {
        fill: #111;
      }

      .st1 {
        fill: #363636;
      }

      .st2 {
        fill: #c8221a;
      }

      .st3 {
        fill: #f1bb43;
      }

      .st4 {
        fill: #9d9d9d;
      }

      .st5 {
        fill: #121111;
      }

      .st6 {
        fill: #faf2e2;
      }

      .st7 {
        fill: #4e4e4e;
      }

      .st8 {
        fill: #141414;
      }

      .st9 {
        fill: #121212;
      }

      .st10 {
        fill: #181310;
      }

      .st11 {
        fill: #f2f2f2;
      }

      .st12 {
        fill: #8c8c8c;
      }

      .st13 {
        fill: #616161;
      }

      .st14 {
        fill: #787878;
      }
    </style>
  </defs>
  <path class="st8" d="M282.8-172.7c250.8-11.6,460.6,142.9,538.7,377.7,83.1,249.9-22.4,524.6-249.2,654.8-313.5,180-707.5,4.3-796.2-340.4C-310.6,183-65.1-156.6,282.8-172.7ZM299.8-155.7C75.1-149.2-113.6-12.3-191,197.5c-95.8,259.5,22.7,547.7,270.7,665.4,301.1,143,647.4-26.5,734.1-342.6C905.5,185.7,652.6-165.9,299.8-155.7Z"/>
  <path class="st11" d="M299.8-155.7c352.8-10.2,605.7,341.4,513.9,675.9-86.7,316.1-433,485.6-734.1,342.6-248-117.7-366.5-405.9-270.7-665.4C-113.6-12.3,75.1-149.2,299.8-155.7ZM303.8-145.7C70.8-142.3-126.5,11.5-192.3,233.2s11,431.4,181.4,562.2c268.6,206.1,646,107.2,785.8-197,157-341.7-90.1-749.7-471.1-744.1Z"/>
  <path class="st9" d="M303.8-145.7c381-5.6,628.1,402.3,471.1,744.1C635.1,902.6,257.7,1001.5-10.9,795.4c-170.4-130.7-242.8-355-181.4-562.2S70.8-142.3,303.8-145.7ZM-70,689c5.3,6.9,9,12.2,15,19s8.2,8.1,12,12,7,8.1,11,12,8,7.4,12,11c12.2,10.9,23.9,20.3,37,30s11,8,17,12,11.1,7.3,17,11c10.3,6.4,20.1,12.3,31,18s18.4,8.9,28,13c275.7,117.8,580.3-29.3,659.5-317,42.7-155.1,6.8-302.9-84.5-431s-11.7-14.7-18-22-6.1-7.8-10-12-6.8-6.7-10-10-6.2-7.3-10-11c-21.6-21.2-40.7-36.4-66-53-8.2-5.4-14.5-9.1-23-14s-10.4-6-16-9c-8.2-4.4-15.6-8.1-24-12-10.5-4.9-18.2-8.1-29-12C259.3-154.8,17.9-74-102.8,125.7c-109.8,181.7-95.5,396.6,32.8,563.3Z"/>
  <path class="st1" d="M479-76l-1,6c-79.2-34.5-181-38.6-265-21.5C-73.8-33.3-242.7,271.2-144,547.5c17.2,48.1,43.3,98.2,77,136.5-1.6,2.2.2,5.8-3,5-128.3-166.7-142.6-381.6-32.8-563.3C17.9-74,259.3-154.8,479-76Z"/>
  <path class="st1" d="M685,79c91.4,128.1,127.2,275.9,84.5,431-79.2,287.7-383.8,434.8-659.5,317l1-6c166.9,85,383.7,40.8,517.5-85,179.6-168.8,211.4-464.6,48.5-656,2.1,0,5,1.8,7,3,.6,2.2.2,5.1,4,5,.2-3.7-2.1-3.8-4-5-.7-2.5-2.2-4.6,1-4Z"/>
  <path class="st4" d="M637,24c-2.6,2.6-7.3,1.5-9,5-19.8-17.8-41.3-34.6-63-50,4.3-1.1,2.6-5.2,6-8,25.3,16.6,44.4,31.8,66,53Z"/>
  <path class="st4" d="M-12,737c11.5,10,24,20.8,36,30-4.4-1.2-2.7,4.7-7,6-13.1-9.7-24.8-19.1-37-30,2.3-2.5,4.7-4.7,8-6Z"/>
  <path class="st13" d="M85,807c-2.7,1.5-3.2,4.1-3,7-10.9-5.7-20.7-11.6-31-18,1.5-2.3,2.3-4.8,5-6,8.6,5.7,19.9,11.8,29,17Z"/>
  <path class="st12" d="M571-29c-3.4,2.8-1.7,6.9-6,8-6.3-4.5-13.2-7.7-19-13,1.6-2.6,4-6.2,2-9,8.5,4.9,14.8,8.6,23,14Z"/>
  <path class="st7" d="M667,57c6.3,7.3,12.1,13.7,18,22-3.2-.6-1.7,1.5-1,4,1.9,1.2,4.2,1.2,4,5-3.7,0-3.4-2.8-4-5-2-1.2-4.9-3-7-3-5.8-6.8-12-13.4-18-20,1.4-2.9,5.2-2.4,8-3Z"/>
  <path class="st7" d="M508-64l-2,8c-9.2-4.7-18.6-9.9-28-14l1-6c10.8,3.9,18.5,7.1,29,12Z"/>
  <path class="st7" d="M111,821l-1,6c-9.6-4.1-18.6-8.1-28-13-.2-2.9.3-5.5,3-7,8.5,4.8,17.3,9.6,26,14Z"/>
  <path class="st13" d="M532-52c1,3.9-3.8,3.6-5,7-6.9-3.8-14-7.4-21-11l2-8c8.4,3.9,15.8,7.6,24,12Z"/>
  <path class="st12" d="M24,767c5,3.8,11,8.4,16,12-1.1,3.8-4,3.3-6,6-6-4-11.2-7.7-17-12,4.3-1.3,2.6-7.2,7-6Z"/>
  <path class="st14" d="M548-43c2,2.8-.4,6.4-2,9-.3-.3-1.4-.3-2-1s1-2.5-1.5-2-.5,1-.5,1c-2.1-.2-12.1-7.4-15-9,1.2-3.4,6-3.1,5-7,5.6,3,10.7,6,16,9Z"/>
  <path class="st7" d="M-52,700l-3,8c-6-6.8-9.7-12.1-15-19,3.2.8,1.4-2.8,3-5,3.8,4.3,10.8,11.6,15,16Z"/>
  <path class="st14" d="M56,790c-2.7,1.2-3.5,3.7-5,6-5.9-3.7-11.3-7.1-17-11,2-2.7,4.9-2.2,6-6,4.6,3.3,11.3,7.9,16,11Z"/>
  <path class="st13" d="M-52,700c3.7,3.8,10.2,10.3,14,14-.3,3.2-2.1,5.1-5,6-3.8-3.9-8.1-7.6-12-12l3-8Z"/>
  <path class="st12" d="M637,24c3.8,3.7,6.7,7.6,10,11,0,3.3-4.5,3.6-6,6-4.2-4.1-8.7-8.1-13-12,1.7-3.5,6.4-2.4,9-5Z"/>
  <path class="st12" d="M-12,737c-3.3,1.3-5.7,3.5-8,6-4-3.6-8.1-7.2-12-11,5.2-1.5,5.1-3,6-8,4.7,4.2,9.3,8.9,14,13ZM-28.5,732v1c.6-.3.6-.7,0-1Z"/>
  <path class="st14" d="M-38,714c3.1,3,8.6,6.9,12,10-.9,5-.8,6.5-6,8-4-3.9-7.4-8.3-11-12,2.9-.9,4.7-2.8,5-6Z"/>
  <path class="st14" d="M647,35c3.2,3.3,6.4,6.1,10,10-2.6.9-5.1,3.5-6,6-3.1-3.2-7.2-7.3-10-10,1.5-2.4,6.1-2.7,6-6Z"/>
  <path class="st13" d="M657,45c3.9,4.2,6.5,7.9,10,12-2.8.6-6.6.1-8,3-2.7-3-5.2-6.1-8-9,.9-2.5,3.4-5.1,6-6Z"/>
  <path class="st0" d="M478-70c9.4,4.1,18.8,9.3,28,14s14.1,7.2,21,11,12.9,8.8,15,9l2,1c.6.7,1.7.7,2,1,5.8,5.3,12.7,8.5,19,13,21.7,15.4,43.2,32.2,63,50s8.8,7.9,13,12,6.9,6.8,10,10,5.3,6,8,9c6,6.6,12.2,13.2,18,20,162.9,191.4,131.1,487.3-48.5,656-133.8,125.7-350.6,169.9-517.5,85-8.7-4.4-17.5-9.2-26-14-9.1-5.2-20.4-11.3-29-17s-11.4-7.7-16-11-11-8.2-16-12c-12-9.2-24.5-20-36-30s-9.3-8.8-14-13-8.9-7-12-10-10.3-10.2-14-14-11.2-11.7-15-16c-33.7-38.3-59.8-88.4-77-136.5C-242.7,271.2-73.8-33.3,213-91.5c84-17.1,185.8-13,265,21.5ZM465-42c-109-35.3-217.4-36.6-324.7,7.8C-140,82-225.3,421.4-45,663c3.6,4.8,6,8.2,10,13s8.1,9.6,13,15,9,10,14,15,7.1,7.4,11,11c12.9,11.8,25.2,20.3,39,30s12.7,9.5,20,14,.7,1.3,1.6,1.8c6.4,3.9,13.2,8.1,20.4,10.2,0,.6-.3,1.3.2,1.8.9,1.1,12.6,6,14.8,7.2,6.9,3.6,11.9,5.9,19,9,244.9,105.6,518.8-9.9,607-261.5,52.6-149.8,21.9-300.7-67-427.5-2-2.8-4-5.4-6-8-3.9-5.2-6.8-8.9-11-14s-6.7-8.3-11-13-9.5-9.5-15-15c-20.9-20.7-35.7-33.7-61-50s-15.4-9.2-24-14-12.9-7.5-20-11-10.9-5.3-17-8c-9.8-4.3-17.8-7.7-28-11Z"/>
  <path class="st12" d="M542-36c0,0-.2-.8.5-1,2.5-.5,1.1,1.5,1.5,2l-2-1Z"/>
  <path class="st14" d="M-28.5,732c.6.3.6.7,0,1v-1Z"/>
  <path class="st1" d="M118,791c2-1.5,5-2.2,5-5,121.6,63.3,283.7,50.7,400.7-17.8,217.8-127.5,292.1-418.1,151.3-631.7-7.3-11.1-16.1-20.4-23-31.5,1.1.7,5.7,3.3,6,3-.3-2.1-1.6-4.1,0-6,88.9,126.8,119.6,277.7,67,427.5-88.2,251.6-362.1,367.1-607,261.5Z"/>
  <path class="st1" d="M465-42l-2,6C246.9-124.2-3.2-6.2-97.2,200.3c-65.2,143.3-49.6,337.3,56.2,457.7-4.2-.6-2.7.8-3.2,4.3l-.8.7C-225.3,421.4-140,82,140.3-34.2c107.2-44.4,215.7-43.1,324.7-7.8Z"/>
  <path class="st4" d="M615,52l-7,6c-18.1-16.8-40.6-33.6-61-48l7-8c25.3,16.3,40.1,29.3,61,50Z"/>
  <path class="st4" d="M49,741c-1.3,4.3-4.2,3.6-7,6-13.8-9.7-26.1-18.2-39-30l4-11c13.2,11.6,28.2,24.5,42,35Z"/>
  <path class="st12" d="M554,2l-7,8c-7.1-5-14.6-10.4-22-15l5-7c8.6,4.8,15.5,8.5,24,14Z"/>
  <path class="st12" d="M630,67l-4,9c-4.7-4.8-13.3-13.6-18-18l7-6c5.5,5.5,9.5,8.8,15,15Z"/>
  <path class="st12" d="M67,754c-2.9,1.8-1.4,7.6-5,7-7.3-4.5-13.7-9.6-20-14,2.8-2.4,5.7-1.7,7-6,4.8,3.6,13,9.6,18,13Z"/>
  <path class="st7" d="M493-31c.2,2.5-1.3,4.4-3,6-7.4-3.6-18.9-7.7-27-11l2-6c10.2,3.3,18.2,6.7,28,11Z"/>
  <path class="st14" d="M87,767c-4-1.1-3.3,2.5-3,6-7.2-2.1-14-6.3-20.4-10.2s-1.3-1.7-1.6-1.8c3.6.6,2.1-5.2,5-7,6,4.1,13.9,9.2,20,13Z"/>
  <path class="st13" d="M-16,684c-1.6,3-1.8,6.6-6,7-4.9-5.4-8.5-9.5-13-15,4.3.2-2-4,5-6,4.4,4.7,9.4,9.5,14,14Z"/>
  <path class="st14" d="M530-12l-5,7c-5.3-3.3-13-8.3-18-11,2.7-1.3,3.2-4.3,3-7,7.1,3.5,13.3,7.2,20,11Z"/>
  <path class="st14" d="M-3,697l-5,9c-5-5-9.4-9.9-14-15,4.2-.4,4.4-4,6-7,4.3,4.2,8.6,8.9,13,13Z"/>
  <path class="st12" d="M7,706l-4,11c-3.9-3.6-7.3-7.3-11-11l5-9c3,2.8,6.9,6.2,10,9Z"/>
  <path class="st7" d="M104,777c5.1,2.9,13.2,6,19,9,0,2.8-3,3.5-5,5-7.1-3.1-12.1-5.4-19-9,2-1.6,1.8-5.2,5-5Z"/>
  <path class="st13" d="M510-23c.2,2.7-.3,5.7-3,7-4.6-2.5-12.4-6.7-17-9,1.7-1.6,3.2-3.5,3-6,6.1,2.7,11.1,5.1,17,8Z"/>
  <path class="st13" d="M87,767c5.1,3.1,11.7,7,17,10-3.2-.2-3,3.4-5,5-2.3-1.2-14-6.1-14.8-7.2s-.1-1.2-.2-1.8c-.3-3.5-1-7.1,3-6Z"/>
  <path class="st13" d="M641,80c4.2,5.1,7.1,8.8,11,14-3.4,1.8-5.2,2.2-9,1-2.9-3.2-6.2-7-9-10l7-5Z"/>
  <path class="st14" d="M641,80l-7,5c-2.7-2.9-5.7-6.7-8-9l4-9c4.3,4.7,7,8.2,11,13Z"/>
  <path class="st7" d="M-41,658c3.5,4,7.4,8.1,11,12-7,2-.7,6.2-5,6-4-4.8-6.4-8.2-10-13l.8-.7c.5-3.5-1-5,3.2-4.3Z"/>
  <path class="st7" d="M652,94c2,2.6,4,5.2,6,8-1.6,1.9-.3,3.9,0,6-.3.3-4.9-2.3-6-3-4.8-3.1-5.7-6.4-9-10,3.8,1.2,5.6.8,9-1Z"/>
  <path class="st0" d="M463-36c8.1,3.3,19.6,7.4,27,11s12.4,6.5,17,9,12.7,7.7,18,11,14.9,10,22,15c20.4,14.4,42.9,31.2,61,48s13.3,13.2,18,18,5.3,6.1,8,9,6.1,6.8,9,10,4.2,6.9,9,10c7,11,15.7,20.4,23,31.5,140.8,213.6,66.5,504.2-151.3,631.7-117,68.5-279.1,81.1-400.7,17.8-5.8-3-13.9-6.1-19-9s-11.9-6.9-17-10-14-8.9-20-13-13.2-9.4-18-13c-13.8-10.5-28.8-23.4-42-35s-7-6.2-10-9c-4.4-4.1-8.7-8.8-13-13s-9.6-9.3-14-14-7.5-8-11-12c-105.8-120.3-121.4-314.3-56.2-457.7C-3.2-6.2,246.9-124.2,463-36ZM-20,637c6.9,9.4,13.3,17.3,21,26s4.4,5.2,7,8c4.3,4.6,8.5,8.7,13,13s3.9,3,5,4c12.4,11.5,20,18,34,28,6.8,4.8,13.1,8.6,20,13s10.8,7.5,17,11,11.8,5.8,18,9,10.2,5.4,16,8c214.4,96.1,453.8-.1,548.9-211.6,51.4-114.4,46.9-245.2-10.3-356.4-11.4-22.1-25.9-45.3-39.5-65s-7.2-11-12-17-6-6.9-10-11-8.3-10.2-13-15-6.5-6.7-10-10c-13.1-12.5-23-20.7-38-31s-31.5-22.6-41-23c0-.9,0-1.6-1-2l-22-11c-10-4.8-20.4-8.7-31-12-77.5-24-153.8-31.1-234-13.5C-14.3,29.3-156,270.1-88.7,499.2c14.2,48.4,39.4,97.7,68.7,137.8Z"/>
  <path class="st1" d="M630,124c13.7,19.7,28.1,42.8,39.5,65,57.3,111.2,61.8,242,10.3,356.4-95.1,211.5-334.4,307.7-548.9,211.6l1-7c184.2,97.6,413.8,14.4,518.8-157.7,93.6-153.3,77.5-325-26.8-466.3,2.4.4,4.3-.5,6-2Z"/>
  <path class="st1" d="M452-8l-2,6c-59.2-23.3-125-29.8-188.4-22.9C-40.6,8.1-201.7,353.6-34.8,607.3l19.8,24.7c-.9-.4-3.7-.5-5-1,0,2.1,1.4,4.1,0,6-29.4-40.1-54.5-89.4-68.7-137.8C-156,270.1-14.3,29.3,218-21.5c80.2-17.6,156.5-10.5,234,13.5Z"/>
  <path class="st4" d="M585,71c-.9,3.7-5.4,5.1-5,9-12.3-9.1-24.5-19.5-37-29-2-6.1,5.2-5.4,4-11,15,10.3,24.9,18.5,38,31Z"/>
  <path class="st4" d="M32,680c11.1,9.6,24.8,21.3,36,30-3.5.2-2.6,5.8-8,6-14-10-21.6-16.5-34-28l6-8Z"/>
  <path class="st12" d="M506,17c9.5.4,32.7,17.3,41,23,1.2,5.6-6,4.9-4,11-12.1-9.2-25-18.2-38-26-.6-2.7,1.1-5.5,1-8-1.7,0-2.3.6-2-1.5l1-.5c1,.4,1,1.1,1,2Z"/>
  <path class="st7" d="M-15,632c3.9,1.9,15.8,17.6,20,22l-4,9c-7.7-8.7-14.1-16.6-21-26,1.4-1.9,0-3.9,0-6,1.3.5,4,.6,5,1Z"/>
  <path class="st7" d="M483,4l-2,8c-10.1-5.1-20.5-9.9-31-14l2-6c10.6,3.3,21,7.2,31,12Z"/>
  <path class="st12" d="M68,710c4.4,3.4,12,8.5,17,12-1.7,2.3-4.6,4.1-5,7-6.9-4.4-13.2-8.2-20-13,5.4-.2,4.5-5.8,8-6Z"/>
  <path class="st13" d="M483,4l22,11-1,.5c-.3,2,.3,1.4,2,1.5,0,2.5-1.6,5.3-1,8-7.7-4.6-16-9-24-13l2-8Z"/>
  <path class="st14" d="M608,96l-5,7c-3.6-3.8-10.6-9.8-15-14,2.2-3,6-4.1,7-8,4.7,4.8,9.4,11.3,13,15Z"/>
  <path class="st14" d="M101,733c-3.5.6-4.7,3.8-4,7-6.2-3.5-11.9-7.7-17-11,.4-2.9,3.3-4.7,5-7,4.8,3.3,11.3,8,16,11Z"/>
  <path class="st14" d="M26,674c-4.8,2-5.5,5-5,10-4.5-4.3-8.7-8.4-13-13,1.2-3.1,4.3-5.4,4-9,3.4,3.4,9.8,8.2,14,12Z"/>
  <path class="st7" d="M630,124c-1.7,1.5-3.6,2.4-6,2-1.6-2.2-11.1-11.8-14-15,3.1.2,5.3-2.7,8-4,4.8,6,7.7,10.8,12,17Z"/>
  <path class="st13" d="M101,733c5,3.2,11.6,6.9,17,10-1.7,1.6-3.2,3.5-3,6-6.2-3.2-11.5-5.3-18-9-.7-3.2.5-6.4,4-7Z"/>
  <path class="st12" d="M595,81c-1,3.9-4.8,5-7,8-2.1-2-7.5-8.6-8-9-.4-3.9,4.1-5.3,5-9,3.5,3.3,6.7,6.5,10,10Z"/>
  <path class="st7" d="M132,750l-1,7c-5.8-2.6-10.6-5.3-16-8-.2-2.5,1.3-4.4,3-6,3.9,2.2,9.7,4.7,14,7Z"/>
  <path class="st13" d="M618,107c-2.7,1.3-4.9,4.2-8,4-2.3-2.5-5.1-6-7-8l5-7c4,4.1,6.1,6.1,10,11Z"/>
  <path class="st13" d="M12,662c.3,3.6-2.8,5.9-4,9-2.6-2.8-4.5-5.2-7-8l4-9c2.4,2.5,5.4,6.4,7,8Z"/>
  <path class="st12" d="M26,674c2.3,2.1,3.8,4.1,6,6l-6,8c-1.1-1-3-2.1-5-4-.5-5,.2-8,5-10Z"/>
  <path class="st0" d="M450-2c10.5,4.1,20.9,8.9,31,14s16.3,8.4,24,13c13,7.8,25.9,16.8,38,26,12.5,9.5,24.7,19.9,37,29s5.9,7,8,9c4.4,4.2,11.4,10.2,15,14s4.7,5.5,7,8,12.4,12.8,14,15c104.3,141.4,120.4,313,26.8,466.3-105,172.1-334.7,255.3-518.8,157.7-4.3-2.3-10.1-4.8-14-7s-12-6.8-17-10-11.2-7.7-16-11-12.6-8.6-17-12c-11.2-8.7-24.9-20.4-36-30s-3.7-3.9-6-6c-4.2-3.8-10.6-8.6-14-12s-4.6-5.5-7-8c-4.2-4.4-16.1-20.1-20-22l-19.8-24.7C-201.7,353.6-40.6,8.1,261.6-24.9c63.3-6.9,129.1-.4,188.4,22.9ZM436,26C376,8.6,322.5.8,259.6,9.1-2.3,43.8-150.2,331.5-21.5,565c4,7.2,17.2,24.8,19,30,2.7,7.9,3.3,9.3,8.6,16.5s.7,3,3,2.5c1.7,6.1,9.1,12.3,13,17s6.8,9,12,14,6.7,4.7,7,5,0,2.2,1,3.5c2.2,2.9,5.7,4.2,7,5.5,12.3,12.2,19.8,17.9,34,28s11.2,7.8,18,12,13.4,7,18,10,9.4,5.7,16,9,10.9,5.5,17,8c183.1,75.4,381.3,7.1,478.2-164.3,77.2-136.6,59.1-288.1-27.2-413.7-4.3-6.3-7.1-10.8-12-17s-5.7-6.3-8-9c-5.7-6.7-9.6-11.5-16-18-14.2-14.4-24.2-22.8-41-34-6.7-4.5-12.8-7.3-19-11s0-2-1.6-2.9c-8.6-5-17.5-8.9-26.4-13.1s-16.1-7.3-26-11-10-4-17-6Z"/>
  <path class="st1" d="M152,726c.3-2.9,1.2-4.3,4-5,79.9,40,180.6,41.2,264.5,12,143.6-49.9,249.8-190.4,254.5-343.5s-24.9-173.4-77-236.5c.5-1.5,3.3-.6,3.9-1.1s-.4-3.3,1.1-3.9c86.3,125.6,104.4,277.1,27.2,413.7-96.9,171.5-295.1,239.7-478.2,164.3Z"/>
  <path class="st1" d="M436,26c-1.7,1.1-2,3.1-2,5-31.4-12.5-68.5-19.6-102.5-21C28.5-3.1-167.4,320-8,579.5l20,27.5c-.3-.2-1.5.2-2.3-.2-1.9-.9-2.5-3-4.7-2.8-1,1,4.1,6.4,4.6,8s-.6,1.9-.6,2c-2.3.5-2.1-1.3-3-2.5-5.2-7.2-5.9-8.6-8.6-16.5s-15-22.9-19-30C-150.2,331.5-2.3,43.8,259.6,9.1c62.9-8.3,116.4-.6,176.4,16.9Z"/>
  <path class="st4" d="M567,104c.8,4.3-3.3,6.5-5,10-12.8-11.9-28.7-24.5-43-35,1.3-4.1,6.3-5.8,7-9,16.8,11.2,26.8,19.6,41,34Z"/>
  <path class="st4" d="M92,681c-3.5-.1-6.5,3.7-9,6-14.2-10.1-21.7-15.8-34-28,3.5-.3,4.8-4.6,7-7,11,9.6,24.3,20,36,29Z"/>
  <path class="st14" d="M507,59c.5,5-1.4,5.7-5,8-7.9-5.2-17.8-11.5-26-16-.4-3,1.3-5.7,3-8,8.9,4.3,17.8,8.2,26.4,13.1s1.4,2.8,1.6,2.9Z"/>
  <path class="st12" d="M526,70c-.7,3.2-5.7,4.9-7,9-5.3-3.9-11.5-8.4-17-12,3.6-2.3,5.5-3,5-8,6.2,3.7,12.3,6.5,19,11Z"/>
  <path class="st12" d="M92,681c5.5,4.2,13.5,6.9,17,13-1.2,0-9.1,3.2-8,5-6.8-4.2-11.5-7.4-18-12,2.5-2.3,5.5-6.1,9-6Z"/>
  <path class="st14" d="M567,104c6.4,6.5,10.3,11.3,16,18-3,.1-4.1,4-6,6-3.5-3.6-11.1-10.4-15-14,1.7-3.5,5.8-5.7,5-10Z"/>
  <path class="st13" d="M453,32c9.9,3.7,16.6,6.5,26,11-1.7,2.3-3.4,5-3,8-7.3-4-16.5-8.6-24-12,2.2-2.3,2.2-4.2,1-7Z"/>
  <path class="st7" d="M12,607c5.1,3.2,12.5,14.4,17,19-3.3-.4-5.4,2.6-7,5-3.9-4.7-11.3-10.9-13-17s1-.6.6-2-5.6-7.1-4.6-8c2.2-.2,2.9,1.8,4.7,2.8s2,0,2.3.2Z"/>
  <path class="st14" d="M126,705c-2.8,0-5.4,1.7-7,4-4.6-3-12.2-6.4-18-10-1.1-1.8,6.8-4.9,8-5,3.1-.2,14.8,7.9,17,11Z"/>
  <path class="st7" d="M603,148c-1.5.5-.6,3.3-1.1,3.9s-3.3-.4-3.9,1.1c-3.7-4.5-8.5-11.1-12-15-.7-4.1,3.3-4.3,5-7,4.9,6.2,7.7,10.7,12,17Z"/>
  <path class="st13" d="M29,626c3,3,8.4,7.5,12,11-4.2-.9-2.4,1.6-3.3,2.6-1.3,1.6-3.9,2-3.7,5.4-5.2-5-7.6-8.6-12-14,1.6-2.4,3.7-5.4,7-5Z"/>
  <path class="st7" d="M453,32c1.2,2.8,1.2,4.7-1,7-5.5-2.5-12.7-5.9-18-8,0-1.9.3-3.9,2-5,7,2,10.6,3.6,17,6Z"/>
  <path class="st13" d="M126,705c3.4,0,8.7,4.2,12,6l-3,7c-6.6-3.3-10.4-5.4-16-9,1.6-2.3,4.2-4,7-4Z"/>
  <path class="st7" d="M156,721c-2.8.7-3.7,2.1-4,5-6.1-2.5-11.2-5.1-17-8l3-7c6,3.2,11.9,7,18,10Z"/>
  <path class="st12" d="M56,652c-2.2,2.4-3.5,6.7-7,7-1.3-1.3-4.8-2.6-7-5.5s-.8-3.4-1-3.5c3.7,0,2.9-4.6,6-6,2.5,2.4,6.5,5.8,9,8Z"/>
  <path class="st13" d="M583,122c2.3,2.7,5.4,5.7,8,9-1.7,2.7-5.7,2.9-5,7-2.2-2.5-6.8-7.7-9-10,1.9-2,3-5.9,6-6Z"/>
  <path class="st14" d="M41,637c2.3,2.2,4.9,6,6,7-3.1,1.4-2.3,6.1-6,6-.3-.3-4.4-2.5-7-5-.2-3.4,2.4-3.8,3.7-5.4s-.9-3.5,3.3-2.6Z"/>
  <path class="st0" d="M434,31c5.3,2.1,12.5,5.5,18,8s16.7,8,24,12,18.1,10.8,26,16,11.7,8.1,17,12c14.3,10.5,30.2,23.1,43,35,3.9,3.6,11.5,10.4,15,14s6.8,7.5,9,10c3.5,3.9,8.3,10.5,12,15,52.2,63.1,79.6,154.6,77,236.5-4.7,153-110.9,293.5-254.5,343.5-83.9,29.2-184.7,28-264.5-12-6.1-3-12-6.8-18-10s-8.6-6-12-6c-2.2-3.1-13.9-11.2-17-11-3.5-6.1-11.5-8.8-17-13-11.7-9-25-19.4-36-29s-6.5-5.6-9-8-3.7-4.8-6-7c-3.6-3.5-9-8-12-11-4.5-4.6-11.9-15.8-17-19l-20-27.5C-167.4,320,28.5-3.1,331.5,10c34,1.5,71.1,8.5,102.5,21ZM433,64C301.5,15.7,149.2,51,56.5,156-39.3,264.5-60.2,414.4,9.5,543c7.4,13.7,17.1,32.2,25.5,44.5s.8,3,3,2.5c.6,4.9,6.5,8.9,9,12s5.3,6.8,9,11,7.2,8.3,12,13c13.3,13.2,23.7,21.4,39,32,6,4.2,13,7.5,18,11s1,1.3,4,3c7.8,4.6,13.1,7,21,11,7.4,3.7,10.9,5.8,19,9,24.1,9.6,51.5,18.5,77.8,22.7,273.3,44.2,487.5-250.5,354.7-496.7-6.9-12.9-13.3-21-18.3-34.7s-6.4-7.8-8.3-10.3c-3.9-5.4-7.5-11.4-12-17s-6.5-8-10-12c-5-5.7-8.5-9.6-14-15-15.4-15.2-24.1-20.7-42-32s-12.3-7.1-15-9c-8-5.7-11-5.9-19-10s-8-4.8-13-7-11.3-4.9-17-7Z"/>
  <path class="st1" d="M575,173c1.8,2.5,6.5,5.5,8.3,10.3,5,13.7,11.3,21.8,18.3,34.7,132.8,246.2-81.5,540.9-354.7,496.7-26.3-4.2-53.7-13.1-77.8-22.7-.5-3,1.5-4.1,4-5,53.7,27.4,121,32.9,180.3,23.8,133.9-20.4,248.7-132,277.4-263.6,19.9-91.4-1.4-199.5-62.7-271.2,4.4,1.3,4-3,7-3Z"/>
  <path class="st1" d="M433,64c.2,2.8,2.9,5.4,1,8-91.4-42.2-206.7-29.6-292.7,19.8C37.2,151.6-32.9,272.3-28,393.5c2.4,60.9,25.7,137.6,66,184,1.7,2,4.3,4.9,5,7.5-.3-.2-1.5.2-2.3-.2-1.8-.9-2.5-3-4.7-2.8-.5,2.5,2.4,3.8,2.8,5.8s-.9,2.1-.9,2.2c-2.2.5-2.1-1.2-3-2.5-8.5-12.3-18.1-30.9-25.5-44.5C-60.2,414.4-39.3,264.5,56.5,156,149.2,51,301.5,15.7,433,64Z"/>
  <path class="st4" d="M539,129c.1,3.8.4,11.6-4,12-13.5-12.5-30-25.4-45-36,3.2-.5,2.7-3.1,3.2-3.7,1.1-1.1,4.7,0,3.8-4.3,17.9,11.3,26.6,16.8,42,32Z"/>
  <path class="st4" d="M76,618c11.1,10,24,18.8,34.7,28.7,1.2,1.1,2,1.6,2.3,3.3-3.1.1-5,5.4-6,8-15.3-10.6-25.7-18.8-39-32l8-8Z"/>
  <path class="st12" d="M131,662c-2.9,1.8-6.4,2.8-6,7-5-3.5-12-6.8-18-11,1-2.6,2.9-7.9,6-8s14.1,9.4,18,12Z"/>
  <path class="st14" d="M463,78c8,4.1,11,4.3,19,10v1.3c-2.7,1.4-3.1,4.4-5,6.7-5.6-3.6-12.3-7.8-18-11,2.5-1.5,3.4-4.3,4-7Z"/>
  <path class="st14" d="M76,618l-8,8c-4.8-4.7-7.7-8.1-12-13l5-8c3.8,3.8,10.5,8.9,15,13Z"/>
  <path class="st12" d="M482,88c2.7,1.9,11.4,6.7,15,9,1,4.2-2.7,3.2-3.8,4.3s0,3.2-3.2,3.7c-4.2-3-8.6-6.2-13-9,1.9-2.3,2.3-5.3,5-6.7v-1.3Z"/>
  <path class="st7" d="M563,156c4.5,5.6,8.1,11.6,12,17-3,0-2.6,4.3-7,3-4.2-5-8.6-10.2-13-15,1.3-1,3.9-.7,5-1.5s0-4.4,3-3.5Z"/>
  <path class="st13" d="M138,667c3.2,2.2,12.7,5.5,13,9s-.3,4.7-1,7c-7.9-4-13.2-6.4-21-11,3.9-.8,6.1-2.4,9-5Z"/>
  <path class="st7" d="M173,687c-2.5.9-4.5,2-4,5-8.1-3.2-11.6-5.3-19-9,.7-2.3,1.2-4.6,1-7,7.9,1.3,14.9,7.4,22,11Z"/>
  <path class="st12" d="M553,144c-2.4-.7-1.9,2-3.7,2.8-3,1.2-2.8-1.4-4.3,4.2-3.3-3.3-6.6-6.8-10-10,4.4-.4,4.1-8.2,4-12,5.5,5.4,9,9.3,14,15Z"/>
  <path class="st14" d="M553,144c3.5,4,6.7,7.9,10,12-2.9-.9-1.5,2.4-3,3.5s-3.7.5-5,1.5c-2.9-3.2-6.8-6.8-10-10,1.5-5.6,1.3-3,4.3-4.2s1.3-3.5,3.7-2.8Z"/>
  <path class="st13" d="M61,605l-5,8c-3.7-4.2-5.7-6.8-9-11l3-9c3.7,3.7,7.9,8.9,11,12Z"/>
  <path class="st13" d="M450,71c5,2.2,9.4,5.2,13,7-.6,2.7-1.5,5.5-4,7-4.2-2.4-8.7-4.8-13-7,2.5-1.5,3.4-4.3,4-7Z"/>
  <path class="st7" d="M43,585c4.2,2.6,4.8,5.8,7,8l-3,9c-2.5-3.1-8.4-7.1-9-12s1.2-.8.9-2.2c-.5-2-3.3-3.3-2.8-5.8,2.2-.2,2.9,1.8,4.7,2.8s2,0,2.3.2Z"/>
  <path class="st7" d="M450,71c-.6,2.7-1.5,5.5-4,7-3.7-1.9-8.4-4.3-12-6,1.9-2.6-.8-5.2-1-8,5.7,2.1,11.4,4.6,17,7Z"/>
  <path class="st14" d="M138,667c-2.9,2.6-5.1,4.2-9,5-3-1.7-3.1-2.4-4-3-.4-4.2,3.1-5.2,6-7,2.4,1.6,4.7,3.4,7,5Z"/>
  <path class="st0" d="M434,72c3.6,1.7,8.3,4.1,12,6s8.8,4.6,13,7,12.4,7.4,18,11,8.8,6,13,9c15,10.6,31.5,23.5,45,36,3.4,3.2,6.7,6.7,10,10s7.1,6.8,10,10c4.4,4.8,8.8,10,13,15,61.3,71.6,82.6,179.8,62.7,271.2-28.6,131.6-143.5,243.2-277.4,263.6-59.3,9.1-126.6,3.6-180.3-23.8-7.1-3.6-14.1-9.7-22-11-.3-3.5-9.8-6.8-13-9s-4.6-3.4-7-5c-3.9-2.6-14.3-12.2-18-12-.3-1.8-1.1-2.3-2.3-3.3-10.7-9.8-23.7-18.7-34.7-28.7-4.5-4.1-11.2-9.2-15-13s-7.3-8.3-11-12-2.8-5.4-7-8c-.8-2.5-3.3-5.5-5-7.5-40.3-46.3-63.6-123.1-66-184-4.8-121.2,65.3-241.9,169.4-301.7,86-49.4,201.3-62,292.7-19.8ZM67,567c2.4,3.4,4.5,5.8,7,9s4.5,6,7,9c4,4.7,6.8,7.6,11,12,14,14.6,22.9,21.9,40,33,4.3,2.8,7.9,4.6,12,7,5.9,3.5,10.5,6.7,17,10s12.5,6,20,9c101.5,40.1,203.5,31.6,292.9-32.6,119.1-85.5,164.9-237.7,102.3-373.1-7.4-16.1-18.3-35.7-27.2-50.3s-5.4-8.2-9-13-6.6-8.1-11-13-6.6-8.4-11-13c-13.4-14.2-20.9-20.5-37-31s-7.9-5.1-13-8-12-6.6-19-10-13.8-5.3-17-7c-6.3-3.4-10.9-5.7-19-8s-5.5-1.3-8-2-3.9-.5-6-1c-17.9-4.8-33.9-9.6-52.6-11.9C127.3,56.2-52.6,273.6,24,483.5c9.6,26.4,27.2,61.2,43,83.5Z"/>
  <path class="st1" d="M181,656c2.5-1.3,4-2.3,5-5,67.9,34.6,153.7,33.2,223.7,4.2,119.2-49.4,203.3-175.7,190.2-306.5-4.3-43.4-24.8-108.4-54.4-140.6-1.6-1.8-3.8-4.6-4.5-7,.4.2,1.8-.4,2.7.2s3.6,8.3,6.2,5.8-3.9-5.3-1-7c8.9,14.6,19.8,34.3,27.2,50.3,62.6,135.3,16.8,287.5-102.3,373.1-89.4,64.2-191.4,72.7-292.9,32.6Z"/>
  <path class="st1" d="M399,94v3c-14.3-3.8-29-7.7-43.6-9.9C121.5,53.1-65.1,294.2,39.1,510.4c9.4,19.4,19.9,35.5,33.9,51.6-4.4-.8-4.9,1.4-6,5-15.8-22.3-33.4-57.1-43-83.5C-52.6,273.6,127.3,56.2,346.4,82.1c18.8,2.2,34.7,7.1,52.6,11.9Z"/>
  <path class="st4" d="M139,622c-.6,1.2-1.3,3.3-2.4,4.1-2.6,1.8-5.5-.7-4.6,3.9-17.1-11.1-26-18.4-40-33l9-6c11.2,10.2,25.7,22,38,31Z"/>
  <path class="st4" d="M481,130c16.1,10.5,23.6,16.8,37,31-3.1.8-5.1,5.1-9,6-9.8-8.9-21.4-18.1-32-26,4-2.2,2.5-7.2,4-11Z"/>
  <path class="st12" d="M481,130c-1.5,3.8,0,8.8-4,11-5.1-3.8-11.7-8.5-17-12,.3-2.4,5.6-5.3,8-7,5.1,2.9,8.1,4.8,13,8Z"/>
  <path class="st13" d="M149,630c4.5,3.1,13.6,7.9,19,11,.3,4.6-7.9,2.5-7,6-6.5-3.3-11.1-6.5-17-10,0-2.8,2-6.8,5-7Z"/>
  <path class="st14" d="M101,591l-9,6c-4.2-4.4-7-7.3-11-12,.5-3.5,4.4-5.3,4-9,4.5,4.6,11,10.4,16,15Z"/>
  <path class="st14" d="M468,122c-2.4,1.7-7.7,4.6-8,7-4.7-3.1-10.1-6.2-15-9l4-8c7,3.4,12.4,6.2,19,10Z"/>
  <path class="st14" d="M518,161c4.4,4.6,7.6,9.2,11,13-3.2.3-4.9,3.4-6,6-3.2-3.3-10.2-9.5-14-13,3.9-.9,5.9-5.2,9-6Z"/>
  <path class="st7" d="M405,95c0,.6-.2,1.7,0,1.9.4.3,10.4,3.4,7.9,0,8.1,2.3,12.7,4.6,19,8,1,3.8-2.4,3.4-5,5-5-2.5-10.8-4.8-16-7,1.2-4.9-5.9-4.2-9-5s-2.1-.8-3-1v-3c2.1.5,4.4.6,6,1Z"/>
  <path class="st7" d="M186,651c-1,2.7-2.5,3.7-5,5-7.5-3-12.7-5.3-20-9-.9-3.5,7.3-1.4,7-6,5.8,3.4,12,7,18,10Z"/>
  <path class="st13" d="M529,174c4.4,4.9,6.6,7.1,11,13-1.4,3-4.1,4-7,5-3.4-3.7-7.2-9.1-10-12,1.1-2.6,2.8-5.7,6-6Z"/>
  <path class="st13" d="M449,112l-4,8c-5.4-3.1-12.6-7.4-18-10,2.6-1.6,6-1.2,5-5,3.2,1.7,11.9,4.5,17,7Z"/>
  <path class="st7" d="M549,200c-2.9,1.6,2.1,6,1,7-2.7,2.5-5.5-5.3-6.2-5.8s-2.4,0-2.7-.2c-3.2-1.7-5.5-6.3-8-9,2.9-1,5.6-2,7-5,3.6,4.8,5.7,7.6,9,13Z"/>
  <path class="st12" d="M149,630c-3,.2-5,4.2-5,7-4.1-2.4-7.7-4.2-12-7-.9-4.6,2-2.1,4.6-3.9s1.8-2.9,2.4-4.1c3.2,2.4,7.5,6.3,10,8Z"/>
  <path class="st7" d="M73,562c2.1,2.4,4.8,6.6,6,8-.3,2.7-2.8,4.6-5,6-2.5-3.2-4.6-5.6-7-9,1.1-3.6,1.6-5.8,6-5Z"/>
  <path class="st13" d="M85,576c.4,3.7-3.5,5.5-4,9-2.5-3-4.7-6.1-7-9,2.2-1.4,4.7-3.3,5-6,1.2,1.3,4.3,4.2,6,6Z"/>
  <path class="st1" d="M413,97c2.5,3.3-7.5.2-7.9,0s0-1.4,0-1.9c2.5.7,5.2,1.2,8,2Z"/>
  <path class="st0" d="M399,97c.9.2,1.9.7,3,1,0,4,6,3.7,9,5,5.2,2.2,11,4.5,16,7s12.6,6.9,18,10,10.3,5.9,15,9,11.9,8.2,17,12c10.6,7.9,22.2,17.1,32,26,3.8,3.5,10.8,9.7,14,13s6.6,8.3,10,12,4.8,7.3,8,9c.6,2.4,2.8,5.2,4.5,7,29.6,32.2,50.1,97.2,54.4,140.6,13.1,130.9-71,257.1-190.2,306.5-70,29-155.8,30.5-223.7-4.2-6-3-12.2-6.6-18-10s-14.5-7.9-19-11-6.8-5.6-10-8c-12.3-9-26.8-20.8-38-31s-11.5-10.4-16-15-4.8-4.7-6-6-3.9-5.6-6-8c-14-16.2-24.5-32.2-33.9-51.6C-65.1,294.2,121.5,53.1,355.4,87.1c14.6,2.1,29.4,6.1,43.6,9.9ZM403,132c-54.3-17.5-104.8-22.2-161-7.5C109,159.2,19,298.1,47.3,434.2c7.3,35.2,26,75.1,44.7,105.4s.9,2.9,3,2.5c1.5,5.8,4.2,5.6,6,8s3.5,5,6,8c3.7,4.5,6.8,8.6,11,13s4.1,3.1,5,4c7.4,7.2,9.9,10.4,19,17s13.4,8.5,21,13,8.9,5.4,14,8,10.4,5.2,17,8c40.9,17.2,85.3,27,130.5,23,152.4-13.5,268.2-165.2,239.2-316.2-7.1-37-29.1-85.4-50.7-115.8s-6.9-9-11-14-5.6-6.3-9-10c-14.6-15.6-22.5-21.9-41-33-7.8-4.7-12.9-7.1-21-11s-9-4.6-15-7-7.9-3.3-13-5Z"/>
  <path class="st1" d="M402,98c3.1.8,10.2.1,9,5-3-1.3-8.9-1-9-5Z"/>
  <path class="st1" d="M194,621c2-1.5,5-2.2,5-5,78.4,41.1,174.4,30.2,246.7-19.8,125.4-86.6,162-261.8,59.3-381.2,3.1-2.3,4.9,4.4,7.5,4l.5-7c21.6,30.4,43.6,78.7,50.7,115.8,28.9,151-86.8,302.7-239.2,316.2-45.2,4-89.6-5.8-130.5-23Z"/>
  <path class="st1" d="M403,132v1.3c-1.2,1.3-3.3,1.4-3,3.7-60-26.7-134.1-22.1-194,3.5C95.3,187.9,25.9,313.6,50.5,433c5.5,26.9,20.7,67.7,37.6,89.4s10.2,8.2,11,14.5c-.9-.3-4.6-1.4-5-1-.4,1.9,1.5,3,1.8,4.6s-.8,1.3-.8,1.3c-2.1.5-2.2-1.1-3-2.5-18.7-30.3-37.4-70.1-44.7-105.4C19,298.1,109,159.2,242,124.5c56.2-14.7,106.7-10,161,7.5Z"/>
  <path class="st4" d="M493,188c-2.4,1.8-5.5,3.9-6,7-10.2-9.9-27.3-24.1-39-32-.5-4.2,1.3-5.5,4-8,18.5,11.1,26.4,17.4,41,33Z"/>
  <path class="st4" d="M150,586c-2.4,2.2-4.5,5.3-8,6-9.1-6.6-11.6-9.8-19-17,3.9.5,0-6.2,6-7,6.1,5.5,14.6,13,21,18Z"/>
  <path class="st12" d="M150,586c4.7,3.6,13.2,9.9,18,13-3.8-.5-5,2.7-5,6-7.6-4.5-13.5-7.5-21-13,3.5-.7,5.6-3.8,8-6Z"/>
  <path class="st14" d="M431,144c8.1,3.9,13.2,6.3,21,11-2.7,2.5-4.5,3.8-4,8-4.7-3.2-12.9-8.1-18-11l1-8Z"/>
  <path class="st7" d="M513,212l-.5,7c-2.6.4-4.4-6.3-7.5-4-2.9-3.4-6-6.7-9-10,2.2-3.3,5.6-2.3,6-7,4.1,5,7.1,8.6,11,14Z"/>
  <path class="st13" d="M168,599c3.5,2.3,9.9,5.7,14,8l-5,6c-5.1-2.6-9.4-5.3-14-8,0-3.3,1.2-6.5,5-6Z"/>
  <path class="st7" d="M199,616c0,2.8-3,3.5-5,5-6.6-2.8-10.9-4.9-17-8l5-6c5.5,3.2,11.4,6,17,9Z"/>
  <path class="st14" d="M123,562c-4.6.8-3.1,5.6-5,9-4.2-4.4-7.3-8.5-11-13,1.6-2.5,3.5-3.6,6-5,2.3,2.4,7,6.1,10,9Z"/>
  <path class="st13" d="M431,144l-1,8c-5.1-2.9-10.8-5.4-16-8l2-7c6,2.4,9.6,4.4,15,7Z"/>
  <path class="st14" d="M502,198c-.4,4.7-3.8,3.7-6,7-2.9-3.2-6-7.1-9-10,.5-3.1,3.6-5.2,6-7,3.4,3.7,5.7,6.1,9,10Z"/>
  <path class="st7" d="M99,537c4.9,1.9,5.4,6.1,8,9l-6,4c-1.8-2.4-4.5-2.2-6-8s.9-.7.8-1.3c-.3-1.7-2.1-2.7-1.8-4.6.4-.4,4.1.7,5,1Z"/>
  <path class="st7" d="M416,137l-2,7c-4.5-2.3-9.5-5-14-7-.3-2.3,1.8-2.4,3-3.7v-1.3c5.1,1.7,8.2,3.1,13,5Z"/>
  <path class="st12" d="M129,568c-6.1.8-2.1,7.5-6,7-.9-.9-2.9-1.8-5-4,1.9-3.4.4-8.2,5-9,2,1.9,4.2,4.3,6,6Z"/>
  <path class="st13" d="M113,553c-2.5,1.4-4.4,2.5-6,5-2.5-3-3.9-5.2-6-8l6-4c1.9,2.1,4.6,5.6,6,7Z"/>
  <path class="st5" d="M400,137c4.5,2,9.5,4.7,14,7s10.9,5.1,16,8,13.3,7.8,18,11c11.7,7.9,28.8,22.1,39,32s6.1,6.8,9,10,6.1,6.6,9,10c102.7,119.4,66.1,294.6-59.3,381.2-72.3,49.9-168.3,60.8-246.7,19.8-5.6-3-11.5-5.8-17-9s-10.5-5.7-14-8-13.3-9.4-18-13-14.9-12.5-21-18-4-4.1-6-6c-3-2.9-7.7-6.6-10-9s-4.1-4.9-6-7-3.1-7.1-8-9c-.8-6.3-7.5-10.1-11-14.5-16.9-21.7-32-62.5-37.6-89.4-24.5-119.5,44.8-245.1,155.6-292.5,59.9-25.6,134-30.2,194-3.5ZM298.8,170.3c-186.7,9.4-271.1,239.7-130.8,365.2,110.6,98.9,282.2,51.4,332-86,49.6-136.7-54.5-286.6-201.2-279.2Z"/>
  <path class="st3" d="M298.8,170.3c146.7-7.3,250.8,142.6,201.2,279.2-49.8,137.4-221.4,184.9-332,86C27.7,410,112.1,179.6,298.8,170.3ZM288.8,190.3c-128.5,9.4-208.1,151.4-154.7,268.1,60.6,132.2,240.9,149.5,324.7,30,92.8-132.4-7.8-309.9-170-298Z"/>
  <path class="st10" d="M288.8,190.3c162.2-11.8,262.8,165.6,170,298-83.8,119.6-264.1,102.3-324.7-30-53.4-116.7,26.1-258.7,154.7-268.1ZM394.6,223.4c-128.1-71.6-281.8,31.4-265.7,175.2,16.9,150.4,197.1,214.3,304.6,104.4s60.3-224.2-38.9-279.6Z"/>
  <path class="st2" d="M394.6,223.4c99.2,55.4,118.3,198.5,38.9,279.6-107.5,109.9-287.8,46-304.6-104.4-16.1-143.8,137.6-246.8,265.7-175.2ZM295.8,292.3c-65.6,6.7-100,83.7-62.6,138,36.7,53.3,116.7,48.8,148-7.6,34.5-62.3-14.2-137.7-85.4-130.4Z"/>
  <path class="st3" d="M295.8,292.3c71.2-7.3,119.9,68.1,85.4,130.4-31.3,56.5-111.3,60.9-148,7.6-37.4-54.3-3-131.3,62.6-138ZM346.6,313.4c-45.2-27.3-105.3-2.9-117.4,48.3-9.4,39.9,13.8,80.8,52.5,93,1.5.5,6.3,2.3,6.7,2.3,34.3,4.5,66.6-8.1,84.2-38.4s8.6-84.3-26.1-105.3Z"/>
  <path class="st6" d="M346.6,313.4c34.7,21,46,70.8,26.1,105.3s-49.9,42.9-84.2,38.4c-.4,0-5.2-1.8-6.7-2.3-38.7-12.2-61.9-53.1-52.5-93,12.1-51.2,72.2-75.7,117.4-48.3ZM318.7,393.7c17.8-19-13-46.7-29.6-25.2-15.1,19.6,13.1,42.9,29.6,25.2Z"/>
  <path class="st9" d="M318.7,393.7c-16.6,17.8-44.8-5.5-29.6-25.2,16.6-21.6,47.4,6.1,29.6,25.2ZM302.7,375.2c-6.6,1.9-3.8,12.8,3.6,10.6s3.8-12.8-3.6-10.6Z"/>
  <path class="st11" d="M302.7,375.2c7.4-2.1,10.1,8.7,3.6,10.6s-10.1-8.7-3.6-10.6Z"/>
  <metadata>
    <sfw xmlns="http://ns.adobe.com/SaveForWeb/1.0/">
      <slices/>
      <sliceSourceBounds x="-241.42" y="-139.48" width="1091.1" height="1104.8" bottomLeftOrigin="true"/>
    </sfw>
  </metadata>
</svg>